<svg xmlns="http://www.w3.org/2000/svg" viewBox="0 0 914.38 289.86"><defs><style>.cls-1{fill:#f2f2f2;}.cls-2{fill:#0662a8;}</style></defs><g id="Слой_2" data-name="Слой 2"><g id="Слой_1-2" data-name="Слой 1"><path class="cls-1" d="M648.39,221.64V86.74h22.72v134.9Z"/><path class="cls-1" d="M730.2,222.92a45.72,45.72,0,0,1-19.09-3.73,29.47,29.47,0,0,1-12.64-10.36,26.32,26.32,0,0,1-4.45-15,28.12,28.12,0,0,1,3.91-14.73q3.9-6.54,12.81-10.36t23.64-3.82h28.18V180H736q-11.64,0-15.64,3.73a12,12,0,0,0-4,9.18,11.58,11.58,0,0,0,4.91,9.81q4.9,3.65,13.64,3.64a29.52,29.52,0,0,0,15-3.82,21.63,21.63,0,0,0,9.54-11.27l3.82,13.64a25.26,25.26,0,0,1-11.73,13.27Q743.12,222.92,730.2,222.92Zm30.54-1.28V202l-1.27-4.18V163.46q0-10-6-15.54t-18.18-5.55a52.14,52.14,0,0,0-16.09,2.55A39.53,39.53,0,0,0,705.84,152l-8.91-16.55a53.87,53.87,0,0,1,18.63-9,83.65,83.65,0,0,1,22.46-3q21.09,0,32.63,10.09t11.55,31.19v56.9Z"/><path class="cls-1" d="M811.29,221.64V86.74H834V147.1l-1.81,25.82.72,25.81v22.91Zm53.81,1.28a43.8,43.8,0,0,1-22-5.46A37.82,37.82,0,0,1,827.92,201q-5.55-11-5.54-27.91,0-17.08,5.73-28a38.18,38.18,0,0,1,15.45-16.27,43.79,43.79,0,0,1,21.54-5.37q14.37,0,25.37,6.19a45.93,45.93,0,0,1,17.45,17.27q6.45,11.09,6.46,26.18t-6.46,26.18a46.52,46.52,0,0,1-17.45,17.36A50.35,50.35,0,0,1,865.1,222.92Zm-2.54-19.46a29.38,29.38,0,0,0,14.64-3.63,26.56,26.56,0,0,0,10.27-10.55,36.37,36.37,0,0,0,0-32.45,26.71,26.71,0,0,0-10.27-10.46,29.38,29.38,0,0,0-14.64-3.63,29.86,29.86,0,0,0-14.73,3.63,26.46,26.46,0,0,0-10.36,10.46,36.37,36.37,0,0,0,0,32.45,26.31,26.31,0,0,0,10.36,10.55A29.86,29.86,0,0,0,862.56,203.46Z"/><polygon class="cls-2" points="596.56 0 0 17.05 17.09 289.86 613.63 289.86 596.56 0"/><path class="cls-1" d="M91.61,221.62V85.22H154q18.71,0,32.25,6a47.19,47.19,0,0,1,20.95,17.44q7.4,11.4,7.4,27,0,15.39-7.4,26.7a48.11,48.11,0,0,1-20.95,17.44Q172.67,186,154,186H113l17.15-16.75v52.41Zm38.58-48.32L113,155.57h38.58q12.09,0,18-5.26t5.94-14.62q0-9.54-5.94-14.81t-18-5.26H113l17.15-17.73Z"/><path class="cls-1" d="M233.27,221.62V85.22h62.35q18.7,0,32.25,6a47.19,47.19,0,0,1,20.95,17.44q7.4,11.4,7.4,27,0,15.39-7.4,26.6a47,47,0,0,1-20.95,17.15q-13.55,5.94-32.25,5.94H254.7l17.15-16.17v52.41Zm38.58-48.32L254.7,155.57h38.58q12.09,0,18-5.26t5.94-14.62q0-9.54-5.94-14.81t-18-5.26H254.7l17.15-17.73Zm45.79,48.32-33.9-49.69h41.11L359,221.62Z"/><path class="cls-1" d="M446.24,224.35a84.22,84.22,0,0,1-30.2-5.26A72.12,72.12,0,0,1,392,204.18a68.38,68.38,0,0,1-15.87-22.5,69.45,69.45,0,0,1-5.66-28.26,69.4,69.4,0,0,1,5.66-28.25A68.42,68.42,0,0,1,392,102.66,71.94,71.94,0,0,1,416,87.76a89.61,89.61,0,0,1,60.5,0,70.36,70.36,0,0,1,39.75,37.41,70,70,0,0,1-15.88,79.11,71.86,71.86,0,0,1-23.87,14.81A84,84,0,0,1,446.24,224.35Zm0-32a38.21,38.21,0,0,0,14.52-2.72,33.46,33.46,0,0,0,11.69-7.9,37.07,37.07,0,0,0,7.79-12.37,46.79,46.79,0,0,0,0-32.05,37.48,37.48,0,0,0-7.79-12.28,33.57,33.57,0,0,0-11.69-7.89,40,40,0,0,0-29,0A33.66,33.66,0,0,0,420,125.07a37.48,37.48,0,0,0-7.79,12.28,46.94,46.94,0,0,0,0,32.05A37.07,37.07,0,0,0,420,181.77a33.55,33.55,0,0,0,11.69,7.9A38.24,38.24,0,0,0,446.24,192.39Z"/></g></g></svg>